<?xml version="1.0" encoding="UTF-8"?>
<svg version="1.1" xmlns="http://www.w3.org/2000/svg" width="420" height="594">
<path d="M0 0 C1.46983337 -0.00642769 1.46983337 -0.00642769 2.96936035 -0.01298523 C5.03702015 -0.01871729 7.1047001 -0.01923708 9.17236328 -0.01489258 C12.33270656 -0.0117298 15.49211592 -0.03521587 18.65234375 -0.06054688 C20.66406132 -0.06281972 22.6757814 -0.06352343 24.6875 -0.0625 C25.63032837 -0.07170975 26.57315674 -0.08091949 27.54455566 -0.09040833 C36.03978578 -0.03057799 36.03978578 -0.03057799 39.84375 3.30078125 C40.99033037 7.17048999 41.26764079 9.31913941 39.65625 13.05078125 C36.79209714 16.60628136 34.33191751 18.47744956 29.84375 19.30078125 C27.38137233 19.38320319 24.91686232 19.40821424 22.453125 19.3984375 C21.74851135 19.39702255 21.04389771 19.3956076 20.31793213 19.39414978 C18.07649416 19.38857058 15.83515757 19.37602198 13.59375 19.36328125 C12.07031395 19.35826356 10.54687632 19.35370112 9.0234375 19.34960938 C5.29684228 19.33860799 1.57030604 19.32135771 -2.15625 19.30078125 C-2.59783447 20.65260498 -2.59783447 20.65260498 -3.04833984 22.03173828 C-3.92010971 24.6040165 -4.84196636 27.09972803 -5.8828125 29.60546875 C-6.1921875 30.353125 -6.5015625 31.10078125 -6.8203125 31.87109375 C-7.13742188 32.63164062 -7.45453125 33.3921875 -7.78125 34.17578125 C-8.10609375 34.95953125 -8.4309375 35.74328125 -8.765625 36.55078125 C-9.56065762 38.46821287 -10.35819851 40.38460415 -11.15625 42.30078125 C-10.26421875 42.254375 -9.3721875 42.20796875 -8.453125 42.16015625 C-7.28265625 42.1240625 -6.1121875 42.08796875 -4.90625 42.05078125 C-3.74609375 42.004375 -2.5859375 41.95796875 -1.390625 41.91015625 C1.84375 42.30078125 1.84375 42.30078125 4.19921875 44.140625 C6.40138758 47.03326006 6.91537549 48.64788108 6.84375 52.30078125 C5.12605872 55.60091252 3.21852562 58.61339344 -0.15625 60.30078125 C-1.60473582 60.38420284 -3.05695869 60.40810986 -4.5078125 60.3984375 C-5.78398437 60.39360352 -5.78398437 60.39360352 -7.0859375 60.38867188 C-7.97539062 60.38029297 -8.86484375 60.37191406 -9.78125 60.36328125 C-11.12703125 60.35651367 -11.12703125 60.35651367 -12.5 60.34960938 C-14.71881648 60.33780716 -16.93750018 60.3213428 -19.15625 60.30078125 C-19.34743408 60.88230957 -19.53861816 61.46383789 -19.7355957 62.06298828 C-21.99623179 68.89910676 -24.49441761 75.61085167 -27.15625 82.30078125 C-27.45192871 83.05311035 -27.74760742 83.80543945 -28.05224609 84.58056641 C-31.84802816 94.18302577 -35.49545694 103.27482564 -42.15625 111.30078125 C-42.79046875 112.08324219 -43.4246875 112.86570312 -44.078125 113.671875 C-47.43958306 117.67923306 -47.43958306 117.67923306 -49.15625 119.30078125 C-49.81625 119.30078125 -50.47625 119.30078125 -51.15625 119.30078125 C-51.15625 119.96078125 -51.15625 120.62078125 -51.15625 121.30078125 C-62.81241019 126.9391901 -72.75487134 130.38039162 -85.625 126.23828125 C-86.87796875 125.77421875 -86.87796875 125.77421875 -88.15625 125.30078125 C-89.25453125 124.89859375 -89.25453125 124.89859375 -90.375 124.48828125 C-98.05216214 121.18119602 -102.7544212 114.75571935 -106.4296875 107.453125 C-109.68991362 97.79514333 -109.14390025 85.72932444 -104.82421875 76.47680664 C-102.13419413 71.19906419 -99.15404996 66.65132827 -95.15625 62.30078125 C-94.49625 62.30078125 -93.83625 62.30078125 -93.15625 62.30078125 C-92.82625 61.31078125 -92.49625 60.32078125 -92.15625 59.30078125 C-76.08493956 44.84010323 -52.90023849 41.88022227 -32.15625 41.30078125 C-31.11105375 38.8022056 -30.06931525 36.30232183 -29.03125 33.80078125 C-28.71502686 33.03918701 -28.39880371 32.27759277 -28.07299805 31.49291992 C-25.64765678 25.60471342 -23.38268166 19.66985826 -21.28662109 13.65625 C-17.72331241 3.77510975 -17.72331241 3.77510975 -13.1574707 1.15283203 C-8.77164733 -0.0923094 -4.5384343 -0.00438719 0 0 Z M-79.73828125 74.765625 C-84.23278725 79.47795843 -87.21682775 84.89374994 -87.125 91.57421875 C-86.73334583 95.7845011 -86.01549537 99.45834081 -84.15625 103.30078125 C-83.49625 103.30078125 -82.83625 103.30078125 -82.15625 103.30078125 C-82.15625 103.96078125 -82.15625 104.62078125 -82.15625 105.30078125 C-76.58069326 108.26650292 -72.30390711 109.1662772 -66.15625 107.30078125 C-51.78447976 100.16734785 -45.8060193 78.39151618 -40.75 64.26953125 C-40.06000273 62.32436816 -40.06000273 62.32436816 -40.15625 60.30078125 C-56.28164356 59.8813952 -67.93364412 63.99326925 -79.73828125 74.765625 Z " fill="#F1F2F3" transform="translate(237.15625,230.69921875)"/>
<path d="M0 0 C0.90492188 0.20496094 1.80984375 0.40992188 2.7421875 0.62109375 C17.7767195 4.58922433 33.68003665 13.40675035 45 24 C45 24.66 45 25.32 45 26 C45.99 26.33 46.98 26.66 48 27 C48 27.66 48 28.32 48 29 C49.32 29.66 50.64 30.32 52 31 C52 31.66 52 32.32 52 33 C52.66 33 53.32 33 54 33 C59.28354378 38.48584162 63.21191458 44.74903764 66.6953125 51.48046875 C67.76727146 53.55056914 68.90415313 55.51730682 70.125 57.5 C82.41258962 80.43683396 83.481501 111.94449051 76.1875 136.75 C75.48256298 138.84165619 74.75388978 140.92548512 74 143 C73.65195312 143.98355469 73.30390625 144.96710938 72.9453125 145.98046875 C68.8103652 156.77410705 61.97831913 168.57698767 54 177 C53.34 177 52.68 177 52 177 C51.34 178.32 50.68 179.64 50 181 C49.34 181 48.68 181 48 181 C47.67 181.99 47.34 182.98 47 184 C46.34 184 45.68 184 45 184 C44.67 184.99 44.34 185.98 44 187 C42.48461914 188.36279297 42.48461914 188.36279297 40.53515625 189.7421875 C39.82230469 190.24878906 39.10945312 190.75539063 38.375 191.27734375 C37.611875 191.80457031 36.84875 192.33179688 36.0625 192.875 C35.28777344 193.41511719 34.51304687 193.95523438 33.71484375 194.51171875 C28.34817127 198.20018428 22.98675398 201.41286703 17 204 C15.88625 204.52980469 15.88625 204.52980469 14.75 205.0703125 C-8.39690997 215.92042655 -38.63922704 216.46691772 -62.75 208.1875 C-64.51023706 207.48340518 -66.26009646 206.75294071 -68 206 C-69.04671875 205.5565625 -70.0934375 205.113125 -71.171875 204.65625 C-81.81176411 199.96071208 -92.44887612 194.00216284 -101 186 C-101 185.34 -101 184.68 -101 184 C-101.99 183.67 -102.98 183.34 -104 183 C-104 182.34 -104 181.68 -104 181 C-105.32 180.34 -106.64 179.68 -108 179 C-108 178.34 -108 177.68 -108 177 C-108.66 177 -109.32 177 -110 177 C-115.4364044 170.55957497 -119.79931047 163.28203365 -124 156 C-124.55300781 155.11248047 -124.55300781 155.11248047 -125.1171875 154.20703125 C-138.54565336 132.29468968 -139.47261451 101.82734242 -133.62817383 77.44140625 C-131.99901562 71.35795087 -129.88198927 65.59277126 -127 60 C-126.49597656 58.99453125 -125.99195312 57.9890625 -125.47265625 56.953125 C-121.58655045 49.44527434 -117.09876925 42.72803115 -112 36 C-111.34 35.01 -110.68 34.02 -110 33 C-109.34 33 -108.68 33 -108 33 C-107.34 31.68 -106.68 30.36 -106 29 C-105.34 29 -104.68 29 -104 29 C-103.505 27.515 -103.505 27.515 -103 26 C-74.73344747 -0.14776495 -37.10299882 -8.61462716 0 0 Z M-72 15 C-73.07507813 15.56460938 -74.15015625 16.12921875 -75.2578125 16.7109375 C-83.13897229 20.96581658 -90.57531384 25.68020668 -97 32 C-97 32.66 -97 33.32 -97 34 C-97.99 34.33 -98.98 34.66 -100 35 C-103.21960762 38.48489364 -106.0827873 42.26038159 -109 46 C-109.47953125 46.59167969 -109.9590625 47.18335938 -110.453125 47.79296875 C-123.52631899 64.74454362 -129.03437717 87.91205251 -128 109 C-127.97035156 109.9796875 -127.94070312 110.959375 -127.91015625 111.96875 C-127.06768648 128.9003376 -121.3996107 147.41841886 -111 161 C-110.41992188 161.76957031 -109.83984375 162.53914062 -109.2421875 163.33203125 C-107.52170533 165.57759564 -105.76916052 167.7926829 -104 170 C-103.51015625 170.62648438 -103.0203125 171.25296875 -102.515625 171.8984375 C-101.39235377 173.30583027 -100.20269991 174.65984867 -99 176 C-98.34 176 -97.68 176 -97 176 C-96.68675781 176.83917969 -96.68675781 176.83917969 -96.3671875 177.6953125 C-94.51862189 180.81146595 -91.97360714 182.7265861 -89.125 184.875 C-88.2592334 185.53363037 -88.2592334 185.53363037 -87.37597656 186.20556641 C-81.92935109 190.2392784 -76.17844902 193.22671891 -70 196 C-69.278125 196.36609375 -68.55625 196.7321875 -67.8125 197.109375 C-54.36328096 203.7320965 -39.75835909 204.94766539 -25 205 C-23.97277832 205.00604248 -23.97277832 205.00604248 -22.92480469 205.01220703 C-9.45442771 204.95435043 4.03401171 201.15137109 16 195 C16.82113281 194.60554687 17.64226562 194.21109375 18.48828125 193.8046875 C24.34672962 190.83731134 29.5216614 187.2728207 34.6875 183.25 C35.62468872 182.5238147 35.62468872 182.5238147 36.58081055 181.78295898 C38.09598545 180.57289842 39.55398499 179.29191414 41 178 C41 177.34 41 176.68 41 176 C41.99 175.67 42.98 175.34 44 175 C62.17391517 155.89408918 71.48896686 132.26872653 72.25 106.125 C72.19854076 104.41540965 72.10996358 102.70682607 72 101 C71.88011719 99.03160156 71.88011719 99.03160156 71.7578125 97.0234375 C70.4285447 79.83384626 64.97553921 65.59535881 56 51 C55.31430644 49.67635104 54.63787364 48.34734533 54 47 C53.34 47 52.68 47 52 47 C51.814375 46.34 51.62875 45.68 51.4375 45 C45.92530215 33.49628276 33.48028773 25.60553347 23 19 C22.2678125 18.49726563 21.535625 17.99453125 20.78125 17.4765625 C13.39858043 12.62860948 5.44292176 10.30041769 -3 8 C-3.63824707 7.81526123 -4.27649414 7.63052246 -4.93408203 7.44018555 C-10.15510729 6.00495736 -15.22530367 5.53509248 -20.625 5.3125 C-21.50526855 5.27560059 -22.38553711 5.23870117 -23.29248047 5.20068359 C-40.10816319 4.60242449 -56.97258848 6.94031562 -72 15 Z " fill="#E1E3E5" transform="translate(238,192)"/>
<path d="M0 0 C1.03789581 1.64333504 2.03567924 3.31243867 3 5 C4.19625 5.45375 5.3925 5.9075 6.625 6.375 C7.73875 6.91125 8.8525 7.4475 10 8 C11.06877611 11.45780507 11.31564555 13.73741779 10.4375 17.25 C8.00366744 20.21292659 4.82924575 21.77866777 1.01049805 22.24072266 C-1.12563457 22.29395806 -3.23963149 22.2627978 -5.375 22.1875 C-6.11105469 22.17396484 -6.84710938 22.16042969 -7.60546875 22.14648438 C-9.40396743 22.11144869 -11.20208422 22.05765288 -13 22 C-12.33805782 23.77260478 -11.66993547 25.54290072 -11 27.3125 C-10.55269531 28.49585938 -10.10539062 29.67921875 -9.64453125 30.8984375 C-8.49285205 33.85201931 -7.22343222 36.72717998 -5.88671875 39.6015625 C-1.49126064 49.17112497 1.96973042 57.26274771 0 68 C-2.28591985 73.30333406 -5.86814596 75.6487949 -11 78 C-12.8253125 78.680625 -12.8253125 78.680625 -14.6875 79.375 C-18.24156412 80.74141966 -18.24156412 80.74141966 -19.875 84.1875 C-22 87 -22 87 -24.2421875 87.38671875 C-26.52313637 87.37606011 -28.73489265 87.26135854 -31 87 C-34 81.25 -34 81.25 -34 79 C-34.94875 78.896875 -35.8975 78.79375 -36.875 78.6875 C-40 78 -40 78 -42 75 C-42 71.5625 -42 71.5625 -41 68 C-35.94145665 63.44076271 -31.24086291 63.35381525 -24.625 63.25 C-23.23474609 63.20552734 -23.23474609 63.20552734 -21.81640625 63.16015625 C-19.54418565 63.08988139 -17.27296541 63.03697952 -15 63 C-17.78592498 52.83956772 -21.69178328 43.8445162 -26.875 34.6875 C-28.95298808 27.87631685 -29.84128804 19.8778642 -26.7109375 13.28515625 C-23.78626383 9.59258881 -21.27530198 7.65525589 -16.5625 7 C-15.386875 7 -14.21125 7 -13 7 C-12.7525 6.236875 -12.505 5.47375 -12.25 4.6875 C-9.5004986 -1.22392802 -6.119747 -1.78029004 0 0 Z " fill="#EEEFF1" transform="translate(272,275)"/>
<path d="M0 0 C-2.00253932 4.73327475 -5.3936338 8.3936338 -9 12 C-8.75185235 6.78889938 -7.07924534 4.55750782 -3.47265625 1.1015625 C-2 0 -2 0 0 0 Z " fill="#AFB5B9" transform="translate(253,283)"/>
<path d="M0 0 C0.66 0.33 1.32 0.66 2 1 C0.02 3.31 -1.96 5.62 -4 8 C-4.33 7.01 -4.66 6.02 -5 5 C-3.35 3.35 -1.7 1.7 0 0 Z " fill="#9FA4AB" transform="translate(235,340)"/>
</svg>
