<?xml version="1.0" encoding="UTF-8"?>
<svg version="1.1" xmlns="http://www.w3.org/2000/svg" width="420" height="594">
<path d="M0 0 C0.80469223 -0.00287018 1.60938446 -0.00574036 2.4384613 -0.00869751 C4.1337047 -0.01073268 5.82897187 -0.00524116 7.52416992 0.00732422 C10.11625662 0.02340749 12.7067892 0.00744696 15.29882812 -0.01171875 C16.94922218 -0.00973663 18.59961528 -0.0058936 20.25 0 C21.02299942 -0.00607269 21.79599884 -0.01214539 22.59242249 -0.0184021 C25.80464809 0.02353523 28.17988037 0.19902861 31.04663086 1.70849609 C32.55859375 3.3984375 32.55859375 3.3984375 33.05859375 6.8359375 C32.49139105 10.87725674 31.74089164 11.96491558 28.55859375 14.3984375 C25.74035183 15.80755846 23.38608093 15.51027303 20.23828125 15.49609375 C18.98144531 15.49287109 17.72460938 15.48964844 16.4296875 15.48632812 C15.11097656 15.47794922 13.79226562 15.46957031 12.43359375 15.4609375 C11.09375164 15.45592239 9.75390775 15.45135951 8.4140625 15.44726562 C5.12886169 15.43544836 1.84374978 15.41897367 -1.44140625 15.3984375 C-1.72757812 16.605 -2.01375 17.8115625 -2.30859375 19.0546875 C-3.1593803 22.45783369 -4.21510626 25.65531752 -5.56640625 28.8984375 C-5.91960937 29.754375 -6.2728125 30.6103125 -6.63671875 31.4921875 C-6.90226562 32.12125 -7.1678125 32.7503125 -7.44140625 33.3984375 C-6.20390625 33.3571875 -4.96640625 33.3159375 -3.69140625 33.2734375 C-0.43857063 33.2734375 1.84047092 33.44138906 4.55859375 35.3984375 C6.0029023 38.28705459 5.93547881 40.19491451 5.55859375 43.3984375 C3.43940006 47.06627273 3.43940006 47.06627273 0.55859375 48.3984375 C-3.04666156 48.67085349 -6.55078365 48.70918648 -10.1640625 48.57421875 C-13.40679073 49.03446531 -13.40679073 49.03446531 -14.63989258 50.9230957 C-15.72199875 53.0426878 -16.59730709 55.17364514 -17.44140625 57.3984375 C-18.04563257 58.81693612 -18.65108926 60.23491132 -19.2578125 61.65234375 C-19.84298855 63.0872632 -20.42501677 64.52347035 -21.00390625 65.9609375 C-31.99124496 93.02730847 -31.99124496 93.02730847 -45.44140625 99.3984375 C-46.36566406 99.84509766 -46.36566406 99.84509766 -47.30859375 100.30078125 C-54.40920313 103.39482188 -61.28617863 103.42644794 -68.56640625 100.8359375 C-75.45876173 97.72570791 -80.73889781 93.68703106 -83.94140625 86.7109375 C-87.13907966 77.21829266 -85.99135759 68.62420333 -82.1171875 59.51171875 C-75.80924121 47.79276026 -64.94716521 40.30648718 -52.44140625 36.3984375 C-46.08992269 34.68079535 -39.94059183 34.01778266 -33.37890625 33.7734375 C-32.51330078 33.73476563 -31.64769531 33.69609375 -30.75585938 33.65625 C-28.65134266 33.56323269 -26.54640535 33.47981081 -24.44140625 33.3984375 C-24.20035156 32.48578125 -23.95929688 31.573125 -23.7109375 30.6328125 C-22.15189695 25.19601787 -20.13907299 19.93135504 -18.12890625 14.6484375 C-17.75056641 13.60816406 -17.37222656 12.56789062 -16.98242188 11.49609375 C-16.60150391 10.49964844 -16.22058594 9.50320312 -15.828125 8.4765625 C-15.32091919 7.12159668 -15.32091919 7.12159668 -14.8034668 5.73925781 C-11.40659486 -0.09856405 -6.17823776 -0.04866375 0 0 Z M-60.44140625 57.3984375 C-65.46715422 62.90370638 -68.56704563 67.86007451 -68.44140625 75.3984375 C-67.70027487 79.25232065 -66.90729543 80.93254832 -64.12890625 83.7109375 C-60.54802848 85.97066417 -60.54802848 85.97066417 -56.44140625 86.3984375 C-46.97743807 83.50997324 -43.47152761 77.94300601 -38.9609375 69.515625 C-36.4109661 64.28457828 -34.43982518 58.85788631 -32.44140625 53.3984375 C-31.78098349 51.72928682 -31.11652982 50.06169647 -30.44140625 48.3984375 C-40.88699486 48.04030303 -52.40638641 50.46768802 -60.44140625 57.3984375 Z " fill="#EEEFF0" transform="translate(102.44140625,239.6015625)"/>
<path d="M0 0 C-0.4794463 4.21912747 -1.16625119 6.79663178 -4 10 C-6.57103303 9.48579339 -9.13340425 8.96897576 -11.6875 8.375 C-14.01864219 7.76572985 -14.01864219 7.76572985 -16 9 C-16.33 9.99 -16.66 10.98 -17 12 C-16.21625 12.20625 -15.4325 12.4125 -14.625 12.625 C-8.54344193 14.93179789 -2.43779636 18.15745349 2 23 C2.86625 21.3603125 2.86625 21.3603125 3.75 19.6875 C5.38707961 16.58874216 7.00513509 14.84992085 10 13 C12.65722656 12.65942383 12.65722656 12.65942383 15.640625 12.70703125 C16.60516602 12.71452393 17.56970703 12.7220166 18.56347656 12.72973633 C19.7800293 12.75704834 20.99658203 12.78436035 22.25 12.8125 C26.1275 12.874375 30.005 12.93625 34 13 C34.33 22.24 34.66 31.48 35 41 C29.493125 41.3403125 29.493125 41.3403125 23.875 41.6875 C22.7288623 41.76701904 21.58272461 41.84653809 20.40185547 41.9284668 C14.84869252 42.21912419 10.69246141 42.41269921 6 39 C4.21921938 36.77640495 3.26806832 34.58490851 2 32 C1.401875 32.928125 0.80375 33.85625 0.1875 34.8125 C-3.86349312 40.71537568 -3.86349312 40.71537568 -7.23046875 41.55859375 C-16.74577256 43.07513723 -23.96620954 42.35586031 -32 37 C-31.43454163 33.04179141 -30.19097652 30.3340947 -28 27 C-24.25707221 27.8696552 -20.72353668 29.15222429 -17.12109375 30.4765625 C-14.83373977 31.24141995 -14.83373977 31.24141995 -12 30 C-12 29.01 -12 28.02 -12 27 C-13.33804688 26.34644531 -13.33804688 26.34644531 -14.703125 25.6796875 C-15.87359375 25.08414062 -17.0440625 24.48859375 -18.25 23.875 C-19.41015625 23.29492188 -20.5703125 22.71484375 -21.765625 22.1171875 C-25.34795857 19.77223002 -26.98137442 17.74747279 -29 14 C-29.47017401 10.17144018 -29.3719607 7.84180579 -27.8125 4.3125 C-20.34216019 -5.21862321 -10.22465098 -4.54428933 0 0 Z M14 24 C13.66532662 28.16938808 13.66532662 28.16938808 15.1875 31.9375 C17.02020138 33.24211502 17.02020138 33.24211502 19.5625 32.8125 C22.14441272 32.15372967 22.14441272 32.15372967 24 30 C24.07575878 26.95361173 24.07575878 26.95361173 23 24 C19.44090057 21.69139497 17.50814247 21.66123835 14 24 Z " fill="#E4E6E8" transform="translate(266,270)"/>
<path d="M0 0 C3.63 0 7.26 0 11 0 C11 7.92 11 15.84 11 24 C13.64 21.69 16.28 19.38 19 17 C22.11132812 16.20532227 22.11132812 16.20532227 25.03125 16.31640625 C26.08828125 16.33896484 27.1453125 16.36152344 28.234375 16.38476562 C29.31203125 16.44341797 30.3896875 16.50207031 31.5 16.5625 C32.60859375 16.59408203 33.7171875 16.62566406 34.859375 16.65820312 C37.57571676 16.74016171 40.28642716 16.85481237 43 17 C43.04898438 18.20398438 43.09796875 19.40796875 43.1484375 20.6484375 C43.22346343 22.22398198 43.29901133 23.79950166 43.375 25.375 C43.4059375 26.1690625 43.436875 26.963125 43.46875 27.78125 C43.51816421 32.36667375 43.51816421 32.36667375 46 36 C48.60280568 35.67958603 48.60280568 35.67958603 51 35 C52.18695553 31.43913342 52.35095418 28.02668976 52.5625 24.3125 C52.62727539 23.2596582 52.62727539 23.2596582 52.69335938 22.18554688 C52.7991736 20.45724794 52.90006581 18.7286489 53 17 C56.3 17 59.6 17 63 17 C63.08122832 20.37548805 63.14061118 23.74900518 63.1875 27.125 C63.21263672 28.07632812 63.23777344 29.02765625 63.26367188 30.0078125 C63.32003812 35.41897169 63.15664691 39.3702512 60 44 C54.20797299 47.26729729 46.17655224 46.74005575 39.7734375 45.60546875 C36.16864777 44.41665512 34.97971087 42.96415588 33.125 39.6875 C31.28511022 33.67117331 31.25433101 27.24426491 31 21 C30.34 21 29.68 21 29 21 C28.731875 21.598125 28.46375 22.19625 28.1875 22.8125 C27.00082594 24.99847854 25.90400887 26.41332594 24 28 C23.34 28 22.68 28 22 28 C22 29.98 22 31.96 22 34 C22.598125 34.268125 23.19625 34.53625 23.8125 34.8125 C25.99847854 35.99917406 27.41332594 37.09599113 29 39 C29 39.66 29 40.32 29 41 C30.32 41.66 31.64 42.32 33 43 C33 43.66 33 44.32 33 45 C20.4919311 45.76165507 20.4919311 45.76165507 16.95703125 43.95703125 C15.625 42.625 15.625 42.625 14 40 C14 39.34 14 38.68 14 38 C13.34 38 12.68 38 12 38 C11.67 40.31 11.34 42.62 11 45 C7.37 45 3.74 45 0 45 C0 30.15 0 15.3 0 0 Z " fill="#E3E6E8" transform="translate(305,266)"/>
<path d="M0 0 C1.6097168 0.00966797 1.6097168 0.00966797 3.25195312 0.01953125 C4.9312793 0.04466797 4.9312793 0.04466797 6.64453125 0.0703125 C7.77568359 0.07933594 8.90683594 0.08835937 10.07226562 0.09765625 C12.86739953 0.12124388 15.6621097 0.1541595 18.45703125 0.1953125 C19.53969373 3.44329993 19.49139311 5.55428077 19.3359375 8.95703125 C19.28759766 10.07529297 19.23925781 11.19355469 19.18945312 12.34570312 C19.13337891 13.51294922 19.07730469 14.68019531 19.01953125 15.8828125 C18.96732422 17.06166016 18.91511719 18.24050781 18.86132812 19.45507812 C18.73156931 22.36875344 18.59659993 25.28209328 18.45703125 28.1953125 C14.89545491 28.42208457 11.332877 28.62346729 7.76953125 28.8203125 C6.76212891 28.88476562 5.75472656 28.94921875 4.71679688 29.015625 C3.25209961 29.09296875 3.25209961 29.09296875 1.7578125 29.171875 C0.41456909 29.25042725 0.41456909 29.25042725 -0.95581055 29.33056641 C-5.48037137 29.09402713 -8.0015571 27.69980972 -11.29296875 24.6328125 C-14.23646673 20.84433561 -14.70018443 16.90304855 -14.54296875 12.1953125 C-12.6668364 4.69078309 -7.72686605 -0.08176578 0 0 Z M-0.91796875 10.2578125 C-2.74214207 12.10426274 -2.74214207 12.10426274 -2.98046875 14.6953125 C-2.69777848 17.19157313 -2.69777848 17.19157313 -1.41796875 19.0703125 C0.54179515 20.49319707 0.54179515 20.49319707 3.58203125 19.9453125 C6.33493966 19.48597726 6.33493966 19.48597726 7.45703125 18.1953125 C7.49796062 15.86233817 7.49944848 13.52826025 7.45703125 11.1953125 C3.31111914 9.2713169 3.31111914 9.2713169 -0.91796875 10.2578125 Z " fill="#EAECEE" transform="translate(178.54296875,282.8046875)"/>
<path d="M0 0 C0.96703857 0.00499512 1.93407715 0.00999023 2.93041992 0.01513672 C4.15607666 0.03334473 5.3817334 0.05155273 6.64453125 0.0703125 C12.49171875 0.1321875 12.49171875 0.1321875 18.45703125 0.1953125 C18.78703125 9.4353125 19.11703125 18.6753125 19.45703125 28.1953125 C13.95015625 28.535625 13.95015625 28.535625 8.33203125 28.8828125 C7.18589355 28.96233154 6.03975586 29.04185059 4.85888672 29.1237793 C-4.94898391 29.63713181 -4.94898391 29.63713181 -9.54296875 26.1953125 C-12.70707326 22.3421958 -12.97518377 19.0997771 -12.98046875 14.1953125 C-12.99980469 12.9990625 -13.01914062 11.8028125 -13.0390625 10.5703125 C-12.45539928 6.59956429 -11.33442625 5.02210491 -8.54296875 2.1953125 C-5.14399202 -0.07067198 -3.97977702 -0.04211404 0 0 Z M-1.54296875 11.1953125 C-1.87764213 15.36470058 -1.87764213 15.36470058 -0.35546875 19.1328125 C1.47723263 20.43742752 1.47723263 20.43742752 4.01953125 20.0078125 C6.60144397 19.34904217 6.60144397 19.34904217 8.45703125 17.1953125 C8.53279003 14.14892423 8.53279003 14.14892423 7.45703125 11.1953125 C3.89793182 8.88670747 1.96517372 8.85655085 -1.54296875 11.1953125 Z " fill="#EFF0F2" transform="translate(281.54296875,282.8046875)"/>
<path d="M0 0 C3.72901814 -0.08736736 7.45777165 -0.14051482 11.1875 -0.1875 C12.24259766 -0.21263672 13.29769531 -0.23777344 14.38476562 -0.26367188 C15.91713867 -0.27817383 15.91713867 -0.27817383 17.48046875 -0.29296875 C18.41785889 -0.3086792 19.35524902 -0.32438965 20.32104492 -0.34057617 C23.54718152 0.06956331 25.3931744 1.08301558 28 3 C30.46403044 7.93546037 30.2696223 12.92268381 30.1875 18.3125 C30.18685547 19.13556641 30.18621094 19.95863281 30.18554688 20.80664062 C30.14063798 26.85936202 30.14063798 26.85936202 29 28 C27.31391034 28.07205511 25.62499341 28.08386068 23.9375 28.0625 C23.01839844 28.05347656 22.09929687 28.04445313 21.15234375 28.03515625 C20.44207031 28.02355469 19.73179687 28.01195312 19 28 C18.93941406 26.86820312 18.87882812 25.73640625 18.81640625 24.5703125 C18.73200083 23.08852855 18.64735283 21.6067584 18.5625 20.125 C18.52318359 19.37863281 18.48386719 18.63226563 18.44335938 17.86328125 C18.28426376 13.80013136 18.28426376 13.80013136 17 10 C15.35 10.33 13.7 10.66 12 11 C11.67 16.61 11.34 22.22 11 28 C7.37 28 3.74 28 0 28 C-1.34275621 22.17144343 -0.89458473 16.54145213 -0.5625 10.625 C-0.51029297 9.60277344 -0.45808594 8.58054687 -0.40429688 7.52734375 C-0.27530513 5.01786804 -0.14037142 2.5088606 0 0 Z " fill="#EDEEF0" transform="translate(133,283)"/>
<path d="M0 0 C5.506875 -0.1546875 5.506875 -0.1546875 11.125 -0.3125 C12.2711377 -0.35802002 13.41727539 -0.40354004 14.59814453 -0.45043945 C23.05376711 -0.56534577 23.05376711 -0.56534577 26.6796875 2.08203125 C30.94173834 7.44188307 30.14039088 13.88867469 30.0625 20.4375 C30.05798828 21.16904297 30.05347656 21.90058594 30.04882812 22.65429688 C30.03718148 24.43623419 30.01925191 26.21812863 30 28 C26.37 28 22.74 28 19 28 C18.67 22.39 18.34 16.78 18 11 C15.525 10.505 15.525 10.505 13 10 C10.88074396 12.11925604 11.58168983 16.6196093 11.4375 19.5625 C11.39431641 20.36880859 11.35113281 21.17511719 11.30664062 22.00585938 C11.20024738 24.00368805 11.09959112 26.0018207 11 28 C7.37 28 3.74 28 0 28 C0 18.76 0 9.52 0 0 Z " fill="#E9EBED" transform="translate(202,283)"/>
<path d="M0 0 C3.3 0 6.6 0 10 0 C10.04898437 1.20398438 10.09796875 2.40796875 10.1484375 3.6484375 C10.22346343 5.22398198 10.29901133 6.79950166 10.375 8.375 C10.4059375 9.1690625 10.436875 9.963125 10.46875 10.78125 C10.51816421 15.36667375 10.51816421 15.36667375 13 19 C15.60280568 18.67958603 15.60280568 18.67958603 18 18 C19.18695553 14.43913342 19.35095418 11.02668976 19.5625 7.3125 C19.60568359 6.61060547 19.64886719 5.90871094 19.69335938 5.18554688 C19.7991736 3.45724794 19.90006581 1.7286489 20 0 C23.3 0 26.6 0 30 0 C30.08122832 3.37548805 30.14061118 6.74900518 30.1875 10.125 C30.21263672 11.07632812 30.23777344 12.02765625 30.26367188 13.0078125 C30.32003812 18.41897169 30.15664691 22.3702512 27 27 C21.30742746 30.21119477 12.99815718 29.94602337 6.73828125 28.46484375 C4.16825168 27.47885756 2.35850036 26.54787131 0.83251953 24.21582031 C-0.15024995 21.6000972 -0.22776814 19.58805964 -0.1953125 16.796875 C-0.18886719 15.8171875 -0.18242187 14.8375 -0.17578125 13.828125 C-0.15902344 12.81234375 -0.14226562 11.7965625 -0.125 10.75 C-0.11597656 9.71875 -0.10695313 8.6875 -0.09765625 7.625 C-0.07412138 5.08323384 -0.03825131 2.54158728 0 0 Z " fill="#EDEFF1" transform="translate(338,283)"/>
<path d="M0 0 C3.63 0 7.26 0 11 0 C11 9.24 11 18.48 11 28 C7.37 28 3.74 28 0 28 C0 18.76 0 9.52 0 0 Z " fill="#E3E5E7" transform="translate(117,283)"/>
<path d="M0 0 C2 3 2 3 1.75 6.5625 C1 10 1 10 -1 12 C-4.07108055 12.3267107 -6.15050101 12.48138276 -8.875 10.9375 C-10.66235303 7.85928089 -10.43386742 5.47093932 -10 2 C-7.01983499 -1.66789539 -4.31348256 -1.31279904 0 0 Z " fill="#D9DCE0" transform="translate(127,268)"/>
<path d="M0 0 C0.99 0.33 1.98 0.66 3 1 C1.71064081 2.14842923 0.41843421 3.29366227 -0.875 4.4375 C-1.59429687 5.07558594 -2.31359375 5.71367187 -3.0546875 6.37109375 C-5 8 -5 8 -7 9 C-5.44499019 5.18315774 -2.96404505 2.80804268 0 0 Z " fill="#858891" transform="translate(276,283)"/>
</svg>
