<?xml version="1.0" encoding="UTF-8"?>
<svg version="1.1" xmlns="http://www.w3.org/2000/svg" width="1587" height="2245">
<path d="M0 0 C523.71 0 1047.42 0 1587 0 C1587 740.85 1587 1481.7 1587 2245 C1063.29 2245 539.58 2245 0 2245 C0 1504.15 0 763.3 0 0 Z " fill="#FEFEFE" transform="translate(0,0)"/>
<path d="M0 0 C1.11020004 -0.00571014 2.22040009 -0.01142029 3.36424255 -0.01730347 C4.58296555 -0.01842133 5.80168854 -0.01953918 7.05734253 -0.02069092 C8.98215202 -0.02813828 8.98215202 -0.02813828 10.94584656 -0.03573608 C14.46888761 -0.04885526 17.9919096 -0.05530467 21.51497126 -0.05974674 C23.7183155 -0.06267964 25.92165456 -0.06678497 28.12499619 -0.07125092 C35.02505886 -0.08492765 41.92510965 -0.09459214 48.82518494 -0.09845281 C56.77781109 -0.10292721 64.73026482 -0.1204455 72.68283856 -0.1494534 C78.83670784 -0.17111694 84.99052878 -0.18115965 91.14443576 -0.18249393 C94.81624855 -0.18353907 98.48789931 -0.1893841 102.15967178 -0.20731354 C106.2623859 -0.22695664 110.36474271 -0.22248671 114.46749878 -0.21600342 C116.27736519 -0.22982559 116.27736519 -0.22982559 118.12379456 -0.243927 C125.6770455 -0.206606 132.96661163 0.1350795 139.02560425 5.07794189 C139.82997925 6.09887939 139.82997925 6.09887939 140.65060425 7.14044189 C141.48591675 8.16137939 141.48591675 8.16137939 142.33810425 9.20294189 C145.88935276 14.44526113 145.16729627 21.08366323 144.65060425 27.14044189 C143.74989945 30.17542546 142.4537076 32.55182817 140.65060425 35.14044189 C139.94935425 36.17169189 139.24810425 37.20294189 138.52560425 38.26544189 C133.04133091 44.46063956 124.63349894 48.61686763 116.41784859 49.3358345 C113.83577264 49.42501655 111.2598547 49.45315585 108.67623901 49.45928955 C107.21167015 49.47435799 107.21167015 49.47435799 105.71751404 49.48973083 C102.50901852 49.5204775 99.30060614 49.53757437 96.0920105 49.55450439 C93.85998321 49.57322288 91.62796294 49.5927968 89.39595032 49.6131897 C83.53525948 49.66444489 77.67454572 49.70410609 71.81375122 49.74133301 C65.82767089 49.78141406 59.84168539 49.83248771 53.85568237 49.88262939 C42.12072301 49.97931043 30.38571002 50.0637403 18.65060425 50.14044189 C18.24301376 51.14705368 17.83542328 52.15366547 17.41548157 53.19078064 C9.8826245 71.79240894 2.34607988 90.3921119 -5.28689575 108.95294189 C-5.98944714 110.66319655 -6.69192062 112.37348321 -7.39431763 114.08380127 C-9.04513215 118.10304293 -10.6969301 122.12187882 -12.34939575 126.14044189 C-10.74668823 126.109021 -10.74668823 126.109021 -9.11160278 126.07696533 C-5.10474324 126.00394869 -1.0979411 125.95842077 2.90939331 125.92071533 C4.63573127 125.90073904 6.36200278 125.87354817 8.08810425 125.83868408 C29.45625491 125.41824593 29.45625491 125.41824593 36.56564331 131.88140869 C41.00091164 136.62889477 43.16344571 141.20805847 42.96310425 147.83184814 C41.66711582 157.40596264 37.27532949 164.19250571 30.08810425 170.32794189 C16.8843684 177.2899117 3.88785149 176.62206662 -10.66189575 176.39044189 C-12.86695761 176.37034135 -15.07203721 176.35209689 -17.27713013 176.33575439 C-22.63494438 176.2920526 -27.99208548 176.22542427 -33.34939575 176.14044189 C-33.52381195 176.75645264 -33.69822815 177.37246338 -33.87792969 178.00714111 C-35.59492385 183.91867465 -37.61383345 189.58684414 -39.98220825 195.26544189 C-40.3314183 196.1141687 -40.68062836 196.96289551 -41.04042053 197.83734131 C-42.18081117 200.60682336 -43.32758642 203.37361237 -44.47439575 206.14044189 C-46.10270034 210.08753439 -47.72791532 214.0358971 -49.353302 217.98419189 C-49.76754929 218.98913696 -50.18179657 219.99408203 -50.6085968 221.02947998 C-53.43695029 227.89803924 -56.23118022 234.7796321 -59.0017395 241.67169189 C-59.37520508 242.59973633 -59.74867065 243.52778076 -60.13345337 244.48394775 C-61.56897762 248.05226434 -63.00431738 251.62063002 -64.43173218 255.19219971 C-81.80981648 298.66354532 -103.95434448 346.91368809 -149.41189575 366.95294189 C-164.98757064 373.57162241 -179.68843225 376.49426878 -196.59939575 376.45294189 C-197.90263794 376.46905518 -199.20588013 376.48516846 -200.5486145 376.50177002 C-213.24380654 376.508061 -225.29012486 374.66787631 -236.97439575 369.51544189 C-237.7728894 369.16989258 -238.57138306 368.82434326 -239.39407349 368.46832275 C-261.63336777 358.48803413 -278.62698039 340.28109092 -288.25564575 318.03106689 C-298.51565083 290.91533919 -297.42436854 258.18994657 -285.97439575 231.64044189 C-284.8147826 229.11492918 -283.595641 226.62417026 -282.34939575 224.14044189 C-281.78091919 222.98930908 -281.21244263 221.83817627 -280.6267395 220.65216064 C-276.83252538 213.29708953 -272.43589612 206.65989293 -267.34939575 200.14044189 C-266.63783325 199.22391846 -265.92627075 198.30739502 -265.19314575 197.36309814 C-256.16007763 186.02405313 -245.98693229 176.69396889 -234.34939575 168.14044189 C-233.78156372 167.72294678 -233.21373169 167.30545166 -232.62869263 166.87530518 C-211.2329816 151.39350624 -186.99926042 140.93254424 -161.53689575 134.32794189 C-159.95775391 133.91064819 -159.95775391 133.91064819 -158.34671021 133.48492432 C-138.49200125 128.61361354 -118.07538777 127.64405592 -97.72439575 127.01544189 C-94.45209632 126.90668748 -91.1799483 126.79481062 -87.90789795 126.67880249 C-85.90022586 126.60836653 -83.89239026 126.54239302 -81.88439941 126.48171997 C-80.98130035 126.45143707 -80.07820129 126.42115417 -79.1477356 126.38995361 C-78.36296844 126.36569305 -77.57820129 126.3414325 -76.76965332 126.31643677 C-75.97096832 126.25835846 -75.17228333 126.20028015 -74.34939575 126.14044189 C-73.33557831 126.12538605 -72.32176086 126.1103302 -71.27722168 126.09481812 C-68.02671137 125.38574081 -68.02671137 125.38574081 -66.40438843 121.96148682 C-65.81337466 120.52459243 -65.24911281 119.07652685 -64.70584106 117.62091064 C-64.38940643 116.83186844 -64.0729718 116.04282623 -63.74694824 115.22987366 C-62.70067597 112.60440433 -61.68936711 109.96684958 -60.67752075 107.32794189 C-59.9498884 105.48270176 -59.22009505 103.63831244 -58.48825073 101.79473877 C-56.55715395 96.91342346 -54.65521167 92.02124617 -52.75918579 87.1262207 C-50.86331056 82.24545444 -48.94144288 77.37496951 -47.02127075 72.50372314 C-44.08567909 65.04585466 -41.15612648 57.58565811 -38.23806763 50.12091064 C-37.72955891 48.82008545 -37.72955891 48.82008545 -37.21077728 47.49298096 C-35.45563349 42.9962313 -33.71480461 38.49453427 -31.99673843 33.98348999 C-30.9101064 31.13636637 -29.80737897 28.29546183 -28.70877075 25.45294189 C-28.35663513 24.50483643 -28.00449951 23.55673096 -27.64169312 22.57989502 C-24.08151582 13.43850494 -19.2462418 6.48710564 -10.36502075 2.01544189 C-6.73140922 0.43806014 -3.92859856 0.0120934 0 0 Z " fill="#1B263B" transform="translate(409.3493957519531,910.8595581054688)"/>
<path d="M0 0 C-2.13137216 6.72017523 -4.63631161 13.23534257 -7.31640625 19.75390625 C-7.73236557 20.77185776 -8.14832489 21.78980927 -8.57688904 22.83860779 C-9.90272076 26.08101989 -11.2326294 29.32174268 -12.5625 32.5625 C-13.4279826 34.67893497 -14.29321881 36.79547071 -15.15820312 38.91210938 C-17.32595457 44.21253441 -19.50300116 49.5090761 -21.68463135 54.80380249 C-22.56807554 56.95047226 -23.44951701 59.09796723 -24.32904053 61.24624634 C-33.80234727 84.38263215 -33.80234727 84.38263215 -39.5 95.0625 C-40.04624023 96.09705322 -40.59248047 97.13160645 -41.15527344 98.19750977 C-52.64182536 119.64007918 -65.66710833 136.44509097 -88.9453125 145.38671875 C-99.41928911 148.51298173 -111.91540607 148.28937479 -122 144 C-133.5158625 137.51267358 -140.91638653 129.1309904 -146 117 C-146.34160156 116.19820312 -146.68320313 115.39640625 -147.03515625 114.5703125 C-152.05891904 100.69070739 -149.42423434 83.26820564 -143.53125 70.12890625 C-137.96452574 58.75404368 -131.53491611 49.34838013 -123 40 C-122.40574219 39.33484375 -121.81148437 38.6696875 -121.19921875 37.984375 C-89.95573675 4.80271173 -43.06346796 -0.89248339 0 0 Z " fill="#FEFEFE" transform="translate(321,1087)"/>
<path d="M0 0 C1.12184692 0.01341431 1.12184692 0.01341431 2.26635742 0.02709961 C19.02670426 0.37280303 37.53850963 4.56353934 50.875 15.25 C41.16199135 35.86990132 41.16199135 35.86990132 36.875 44.25 C36.07578125 43.86328125 35.2765625 43.4765625 34.453125 43.078125 C22.00852882 37.17716625 10.87472711 32.48812958 -3.125 34.25 C-8.18871459 36.35180498 -11.0957557 38.61703813 -14.125 43.25 C-14.95833333 46.75 -14.95833333 46.75 -14.125 50.25 C-10.75285559 54.99109689 -7.20061192 57.815569 -2.0625 60.5625 C-1.03443237 61.12880127 -1.03443237 61.12880127 0.0144043 61.70654297 C5.61092577 64.72423229 11.36868087 67.31967734 17.1875 69.875 C32.99555408 76.85653127 48.1350999 86.04974476 54.953125 102.75390625 C56.67794967 109.29508457 56.44458322 115.5556392 55.875 122.25 C55.80152344 123.1678125 55.72804688 124.085625 55.65234375 125.03125 C54.03420488 136.48841715 46.9655549 147.3063923 37.875 154.25 C24.0127031 163.2703562 7.22563861 166.40772496 -9.125 165.25 C-9.81948242 165.20601074 -10.51396484 165.16202148 -11.22949219 165.11669922 C-30.47474914 163.80701105 -48.94459558 157.50647428 -64.125 145.25 C-62.48695954 140.74538872 -60.2415039 136.71160989 -57.875 132.5625 C-57.27764038 131.50772461 -57.27764038 131.50772461 -56.66821289 130.43164062 C-53.57287171 124.98593657 -50.39870326 119.59062963 -47.125 114.25 C-43.52029677 115.5441579 -40.82899639 117.09609871 -37.8125 119.4375 C-27.69107473 126.53293214 -18.12791787 130.86449872 -5.625 130.9375 C-4.80080566 130.94450928 -3.97661133 130.95151855 -3.12744141 130.95874023 C2.59525091 130.78762791 7.07856588 129.41855345 11.875 126.25 C15.13060064 122.6891868 15.24694136 119.25565207 15.37109375 114.62890625 C14.53741895 110.63120581 12.58239876 107.55944372 9.32055664 105.05786133 C7.4789265 103.91243514 5.60816997 102.88220903 3.6875 101.875 C2.98915039 101.4941626 2.29080078 101.1133252 1.57128906 100.72094727 C-3.48552746 98.00389384 -8.65598128 95.57350562 -13.875 93.1875 C-30.72535215 85.4559821 -41.85720752 76.3556449 -49.125 59.25 C-52.18212597 49.9725946 -50.46535226 38.20043106 -47.125 29.25 C-39.50764378 14.75029562 -27.16484597 6.29164441 -11.80859375 1.13671875 C-7.81362465 0.17504538 -4.08120597 -0.05572731 0 0 Z " fill="#1C273C" transform="translate(1032.125,1011.75)"/>
<path d="M0 0 C2.00014225 1.37248255 3.94016992 2.80815212 5.8671875 4.28125 C6.1971875 1.64125 6.5271875 -0.99875 6.8671875 -3.71875 C18.0871875 -3.71875 29.3071875 -3.71875 40.8671875 -3.71875 C40.8671875 28.95125 40.8671875 61.62125 40.8671875 95.28125 C29.6471875 95.28125 18.4271875 95.28125 6.8671875 95.28125 C6.8671875 91.98125 6.8671875 88.68125 6.8671875 85.28125 C5.83271484 86.07789063 5.83271484 86.07789063 4.77734375 86.890625 C-7.65841087 96.23876428 -17.50205826 99.19870731 -33.1328125 98.28125 C-46.72571876 96.17077245 -57.79087338 88.90232349 -65.8828125 77.90234375 C-74.77717218 64.04937855 -77.00248068 48.18653261 -74.0078125 32.15625 C-70.59731853 17.91427979 -61.83774918 6.73694125 -49.69140625 -1.31640625 C-45.67998522 -3.51503243 -41.5723625 -4.70622105 -37.1328125 -5.71875 C-36.48828125 -5.90179687 -35.84375 -6.08484375 -35.1796875 -6.2734375 C-23.62566011 -8.78709995 -9.99609215 -6.06766683 0 0 Z " fill="#1C273B" transform="translate(1173.1328125,1078.71875)"/>
<path d="M0 0 C1.3713961 1.06143828 2.73309107 2.13642452 4.0625 3.25 C4.3925 0.61 4.7225 -2.03 5.0625 -4.75 C16.2825 -4.75 27.5025 -4.75 39.0625 -4.75 C39.0625 27.92 39.0625 60.59 39.0625 94.25 C28.1725 94.25 17.2825 94.25 6.0625 94.25 C6.0625 90.62 6.0625 86.99 6.0625 83.25 C5.4025 83.25 4.7425 83.25 4.0625 83.25 C3.5675 84.735 3.5675 84.735 3.0625 86.25 C-6.69010279 94.72850979 -18.06325314 98.28821629 -30.75390625 97.6640625 C-43.8088332 96.59823266 -54.83757375 90.87153964 -63.8125 81.4375 C-67.7843445 76.75639755 -70.68807536 71.9556574 -72.9375 66.25 C-73.19571533 65.62335449 -73.45393066 64.99670898 -73.7199707 64.35107422 C-76.1061061 58.04420196 -76.44236505 52.20202698 -76.375 45.5 C-76.36670166 44.43885986 -76.35840332 43.37771973 -76.34985352 42.28442383 C-76.03140676 27.49194862 -71.30425931 15.97419213 -61.25 4.9375 C-45.12237714 -10.28547864 -18.2247966 -12.67253135 0 0 Z " fill="#1C273C" transform="translate(783.9375,1079.75)"/>
<path d="M0 0 C11.22 0 22.44 0 34 0 C34.33 33 34.66 66 35 100 C45.89 89.11 56.78 78.22 68 67 C78.12621904 64.50250203 83.08319824 63.51572667 92.5625 64.9375 C94.57881095 65.10402023 96.59651838 65.25441628 98.61523438 65.38867188 C103.44643289 65.74376743 108.20653696 66.30409623 113 67 C108.25677316 72.69691415 103.18976435 77.97106147 97.953125 83.21484375 C96.67450592 84.49845543 96.67450592 84.49845543 95.37005615 85.80799866 C93.57955911 87.60353303 91.78772708 89.39773705 89.99462891 91.19067383 C87.23963068 93.94787762 84.49274751 96.7130022 81.74609375 99.47851562 C80.00309328 101.22444677 78.25962049 102.96990653 76.515625 104.71484375 C75.6916925 105.54596176 74.86776001 106.37707977 74.01885986 107.23338318 C73.25756775 107.99159866 72.49627563 108.74981415 71.71191406 109.53100586 C71.0416217 110.20272324 70.37132935 110.87444061 69.6807251 111.56651306 C68 113 68 113 66 113 C71.44800352 119.45736457 77.31041497 125.42664917 83.30859375 131.37109375 C84.28537451 132.34345929 85.26185537 133.31612616 86.23805237 134.28907776 C89.30169764 137.34141054 92.36932037 140.38972608 95.4375 143.4375 C99.01967107 146.99605389 102.60018526 150.55624403 106.17656136 154.12062263 C107.60603539 155.54360379 109.03847737 156.96355106 110.47105408 158.38340759 C111.32937332 159.23842361 112.18769257 160.09343964 113.07202148 160.97436523 C113.83256332 161.72967026 114.59310516 162.48497528 115.37669373 163.26316833 C117 165 117 165 117 166 C83.33403171 171.90840853 83.33403171 171.90840853 70.05895996 164.31848145 C56.36638691 154.55602774 45.5322378 140.9403014 35 128 C34.67 140.54 34.34 153.08 34 166 C22.78 166 11.56 166 0 166 C0 111.22 0 56.44 0 0 Z " fill="#1C273C" transform="translate(1238,1008)"/>
<path d="M0 0 C11.41380265 -0.57907143 24.25242847 3.35119136 33.48828125 10.2265625 C39.73260285 15.89755318 43.82758508 22.93235746 45.48828125 31.2265625 C45.57620815 33.54910004 45.60592756 35.87404453 45.60180664 38.19824219 C45.60195267 38.8913298 45.60209869 39.58441742 45.60224915 40.29850769 C45.60155432 42.58184983 45.5937821 44.86510967 45.5859375 47.1484375 C45.58407179 48.73455765 45.58264861 50.32067838 45.58164978 51.90679932 C45.57783663 56.07592365 45.56801662 60.245013 45.5569458 64.41412354 C45.54490457 69.41933977 45.54032371 74.42456773 45.53449249 79.42979431 C45.52480422 87.02874135 45.50563926 94.62761167 45.48828125 102.2265625 C33.93828125 102.2265625 22.38828125 102.2265625 10.48828125 102.2265625 C10.4625 97.74835938 10.43671875 93.27015625 10.41015625 88.65625 C10.37846163 85.07648641 10.34281051 81.49681068 10.30448914 77.91711426 C10.26517217 74.14329203 10.23276288 70.36970482 10.21728516 66.59570312 C10.20209618 62.95792455 10.16761244 59.32078562 10.11997223 55.68329239 C10.10518123 54.29834694 10.09724154 52.91331015 10.0963974 51.52828598 C10.32968 41.50068397 10.32968 41.50068397 5.48828125 33.2265625 C0.25940319 28.62016992 -2.82345886 27.86346511 -9.69140625 27.953125 C-16.42193673 28.60566951 -20.17469228 32.53318046 -24.34765625 37.54296875 C-26.69394066 40.93642037 -26.65843266 44.08121052 -26.71704102 48.07495117 C-26.73698624 49.2759697 -26.75693146 50.47698822 -26.77748108 51.71440125 C-26.79419357 53.01134415 -26.81090607 54.30828705 -26.828125 55.64453125 C-26.84870168 56.9854648 -26.86969834 58.32639196 -26.89109802 59.66731262 C-26.94624502 63.19358139 -26.99568669 66.71990798 -27.04394531 70.24627686 C-27.09421425 73.84587734 -27.14982009 77.44539509 -27.20507812 81.04492188 C-27.31307397 88.10540527 -27.41215395 95.16593498 -27.51171875 102.2265625 C-38.73171875 102.2265625 -49.95171875 102.2265625 -61.51171875 102.2265625 C-61.51171875 69.5565625 -61.51171875 36.8865625 -61.51171875 3.2265625 C-50.29171875 3.2265625 -39.07171875 3.2265625 -27.51171875 3.2265625 C-27.51171875 6.5265625 -27.51171875 9.8265625 -27.51171875 13.2265625 C-26.45984375 12.42992187 -26.45984375 12.42992187 -25.38671875 11.6171875 C-17.01598663 5.38463152 -10.48363065 0.94564631 0 0 Z " fill="#1D283D" transform="translate(908.51171875,1071.7734375)"/>
<path d="M0 0 C10.8289859 -0.59391148 22.19966384 4.04477001 30.94921875 10.1953125 C37.56811202 16.21049245 41.52083272 22.31524316 42.94921875 31.1953125 C43.03532193 33.5557808 43.06693958 35.91848313 43.06274414 38.28051758 C43.06289017 38.97375122 43.06303619 39.66698486 43.06318665 40.38122559 C43.06249326 42.65913079 43.0547279 44.93695293 43.046875 47.21484375 C43.04500878 48.79953466 43.04358584 50.38422615 43.04258728 51.96891785 C43.03877818 56.1298076 43.02896167 60.29066218 43.0178833 64.45153809 C43.00583108 69.44926985 43.00125928 74.4470134 42.99542999 79.44475555 C42.98574902 87.02829897 42.96658123 94.61176526 42.94921875 102.1953125 C31.72921875 102.1953125 20.50921875 102.1953125 8.94921875 102.1953125 C8.91183594 97.94527344 8.87445312 93.69523437 8.8359375 89.31640625 C8.79779497 85.91422745 8.75672247 82.51211191 8.71367645 79.10999298 C8.66913016 75.52606871 8.62967194 71.94225824 8.6027832 68.3581543 C8.57665388 64.90199443 8.53618525 61.4462654 8.48603249 57.99037361 C8.46138245 56.03912759 8.45134388 54.08771454 8.4415741 52.13633728 C8.30915502 44.10377766 7.91755067 38.62031087 2.51171875 32.3828125 C-2.29892203 28.27616794 -5.98635778 27.69586066 -12.2265625 27.8125 C-17.89930772 28.58141982 -21.53020488 31.63472097 -25.42578125 35.6328125 C-28.38573747 40.30043576 -29.29790525 44.72577809 -29.36962891 50.20068359 C-29.3894986 51.36143402 -29.40936829 52.52218445 -29.42984009 53.71810913 C-29.4413913 54.95582062 -29.4529425 56.1935321 -29.46484375 57.46875 C-29.4842099 58.74763092 -29.50357605 60.02651184 -29.52352905 61.34414673 C-29.57306404 64.72738412 -29.6143836 68.11051632 -29.65167236 71.49389648 C-29.69183608 74.95305984 -29.74276746 78.4120639 -29.79296875 81.87109375 C-29.8905046 88.64577145 -29.97017717 95.42032757 -30.05078125 102.1953125 C-41.27078125 102.1953125 -52.49078125 102.1953125 -64.05078125 102.1953125 C-64.05078125 69.5253125 -64.05078125 36.8553125 -64.05078125 3.1953125 C-52.83078125 3.1953125 -41.61078125 3.1953125 -30.05078125 3.1953125 C-30.05078125 6.4953125 -30.05078125 9.7953125 -30.05078125 13.1953125 C-29.19355469 12.58042969 -28.33632813 11.96554687 -27.453125 11.33203125 C-26.29841659 10.51528628 -25.14345503 9.69889913 -23.98828125 8.8828125 C-23.42689453 8.47869141 -22.86550781 8.07457031 -22.28710938 7.65820312 C-15.17343239 2.65830445 -8.61762111 0.82072582 0 0 Z " fill="#1C273C" transform="translate(650.05078125,1071.8046875)"/>
<path d="M0 0 C11.22 0 22.44 0 34 0 C34.03738281 4.01027344 34.07476563 8.02054688 34.11328125 12.15234375 C34.15144906 15.37141886 34.19252128 18.5904281 34.2355423 21.80944061 C34.28000741 25.19560948 34.31948131 28.58166021 34.34643555 31.96801758 C34.38013115 35.86308611 34.43245705 39.75753703 34.48828125 43.65234375 C34.49467117 44.8526976 34.5010611 46.05305145 34.50764465 47.28977966 C34.66159333 56.16001946 35.44253228 64.44253228 42 71 C47.27303362 74.43472832 53.98186826 73.44553367 60 73 C63.6302855 72.17929189 66.14491841 70.85508159 68.8125 68.1875 C71.36342442 63.4884287 72.25161474 59.12243562 72.31884766 53.81103516 C72.33871735 52.61024323 72.35858704 51.40945129 72.37905884 50.17227173 C72.39061005 48.89081268 72.40216125 47.60935364 72.4140625 46.2890625 C72.43279211 44.95241118 72.45236684 43.61577145 72.4727478 42.27914429 C72.52388601 38.7775967 72.56360901 35.27601086 72.60089111 31.77429199 C72.64104626 28.19448564 72.69198143 24.61483343 72.7421875 21.03515625 C72.83974102 14.02349728 72.9194028 7.01195639 73 0 C84.55 0 96.1 0 108 0 C108.08437431 7.93118518 108.16445072 15.86070195 108.20700073 23.79194641 C108.22794007 27.48698548 108.25581701 31.18164487 108.30175781 34.87646484 C108.80827914 76.73395845 108.80827914 76.73395845 96.33984375 89.73046875 C83.22458197 101.82996994 63.31045183 102.71867937 46.29199219 102.13183594 C32.77791148 101.35450279 18.66575815 98.13725855 9 88 C2.55310651 78.70017088 -0.13605087 67.75333166 -0.11352539 56.53564453 C-0.11344986 55.27479034 -0.11337433 54.01393616 -0.11329651 52.71487427 C-0.10819109 51.3541866 -0.10297511 49.99349935 -0.09765625 48.6328125 C-0.09578912 47.22891287 -0.09436661 45.82501258 -0.09336853 44.42111206 C-0.08956658 40.74192478 -0.07975633 37.06277752 -0.06866455 33.38360596 C-0.05840031 29.62293041 -0.05380526 25.86224815 -0.04882812 22.1015625 C-0.03866363 14.73433975 -0.01908608 7.36722665 0 0 Z " fill="#1D283C" transform="translate(1361,1075)"/>
<path d="M0 0 C11.22 0 22.44 0 34 0 C34 32.67 34 65.34 34 99 C22.78 99 11.56 99 0 99 C0 66.33 0 33.66 0 0 Z " fill="#1C263B" transform="translate(528,1075)"/>
<path d="M0 0 C4.37206491 4.01850542 7.55932676 9.20450773 8.25390625 15.16796875 C8.55115781 23.11373166 6.87025323 29.3641583 1.55859375 35.44921875 C-4.24586337 40.67635083 -10.53575231 42.46545437 -18.171875 42.234375 C-24.25270361 41.35019416 -29.78330178 38.55530879 -33.95703125 34.0078125 C-38.30138896 27.29380513 -40.28278596 20.8614146 -39.01953125 12.8203125 C-36.69538738 5.52508313 -32.85492716 0.36139305 -26.01953125 -3.1796875 C-16.89750121 -6.71982551 -7.8791591 -5.77340154 0 0 Z " fill="#FAFBFB" transform="translate(1173.01953125,1106.1796875)"/>
<path d="M0 0 C4.67483148 4.07090588 7.61930388 9.46943466 8.28515625 15.64453125 C8.55005351 24.06365721 6.44753679 30.19860921 0.71484375 36.421875 C-4.84343899 41.53701447 -10.5002651 42.73373331 -17.96875 42.44140625 C-24.99660256 41.4180205 -30.20959157 38.47898188 -34.5625 32.875 C-39.13753139 26.21333957 -38.57031988 18.76957519 -38 11 C-36.36604837 4.88048689 -30.96800295 0.59015838 -26 -3 C-17.08945066 -7.45527467 -7.94420704 -5.37152789 0 0 Z " fill="#FBFBFB" transform="translate(782,1106)"/>
<path d="M0 0 C4.25249841 3.16464998 8.29552201 7.21604402 10.6875 12 C11.38403964 19.42214375 11.28199996 25.88818061 6.6875 32 C2.08706418 37.05272586 -3.03220258 39.02203098 -9.75 39.375 C-15.40087932 39.2138172 -18.99869069 37.24983301 -23.0078125 33.3515625 C-27.80980311 28.0392154 -29.81696803 23.55064274 -29.625 16.33984375 C-28.90177197 10.92467387 -26.41318405 6.68447702 -22.3125 3.125 C-15.3372801 -1.81578076 -8.2736974 -2.49771997 0 0 Z " fill="#1D283D" transform="translate(554.3125,1015)"/>
</svg>
